<?xml version="1.0" encoding="UTF-8" standalone="no"?>
<!-- Created with Inkscape (http://www.inkscape.org/) -->

<svg
   xmlns:dc="http://purl.org/dc/elements/1.1/"
   xmlns:cc="http://creativecommons.org/ns#"
   xmlns:rdf="http://www.w3.org/1999/02/22-rdf-syntax-ns#"
   xmlns:svg="http://www.w3.org/2000/svg"
   xmlns="http://www.w3.org/2000/svg"
   xmlns:sodipodi="http://sodipodi.sourceforge.net/DTD/sodipodi-0.dtd"
   xmlns:inkscape="http://www.inkscape.org/namespaces/inkscape"
   width="144.28326mm"
   height="39.282005mm"
   viewBox="0 0 511.23991 139.1882"
   id="svg67789"
   version="1.1"
   inkscape:version="0.91 r13725"
   sodipodi:docname="base outline.svg">
  <defs
     id="defs67791" />
  <sodipodi:namedview
     id="base"
     pagecolor="#ffffff"
     bordercolor="#666666"
     borderopacity="1.0"
     inkscape:pageopacity="0.0"
     inkscape:pageshadow="2"
     inkscape:zoom="2.6"
     inkscape:cx="269.91201"
     inkscape:cy="23.021901"
     inkscape:document-units="px"
     inkscape:current-layer="layer1"
     showgrid="false"
     fit-margin-top="1"
     fit-margin-left="1"
     fit-margin-right="1"
     fit-margin-bottom="1"
     guidetolerance="10000"
     inkscape:snap-nodes="true"
     inkscape:snap-page="true"
     inkscape:object-nodes="true"
     inkscape:window-width="1680"
     inkscape:window-height="988"
     inkscape:window-x="0"
     inkscape:window-y="0"
     inkscape:window-maximized="1">
    <sodipodi:guide
       position="0,0"
       orientation="0,511.23991"
       id="guide68352" />
    <sodipodi:guide
       position="511.23992,0"
       orientation="-139.18821,0"
       id="guide68354" />
    <sodipodi:guide
       position="511.23992,139.18821"
       orientation="0,-511.23991"
       id="guide68356" />
    <sodipodi:guide
       position="0,139.18821"
       orientation="139.18821,0"
       id="guide68358" />
  </sodipodi:namedview>
  <metadata
     id="metadata67794">
    <rdf:RDF>
      <cc:Work
         rdf:about="">
        <dc:format>image/svg+xml</dc:format>
        <dc:type
           rdf:resource="http://purl.org/dc/dcmitype/StillImage" />
        <dc:title></dc:title>
      </cc:Work>
    </rdf:RDF>
  </metadata>
  <g
     inkscape:label="Layer 1"
     inkscape:groupmode="layer"
     id="layer1"
     transform="translate(-101.52291,-399.91096)">
    <path
       id="path67787"
       d="m 101.52291,399.91095 c 0.01,44.0337 -0.01,95.15451 0,139.18821 168.05031,10e-5 343.18961,-10e-5 511.23991,0 -3e-4,-44.0337 -4e-4,-95.15451 0,-139.18821 z m 443.4173,6.91442 c 4.88519,4.8858 9.77117,9.77045 14.65624,14.65625 1.76322,1.8275 4.07646,3.54204 4.22266,6.31054 0.073,3.8134 0.0113,7.63021 0.0312,11.44531 -0.0898,2.12411 0.23111,4.29606 -0.27539,6.37696 -1.0572,3.7278 -6.16995,5.30679 -9.12305,2.77539 -2.6603,-2.5294 -5.20561,-5.18322 -7.82031,-7.76172 -0.6307,-0.4589 -1.05354,-1.47892 -1.90234,-1.41992 -1.9028,1.759 -3.68442,3.66537 -5.54102,5.48047 -1.5655,1.4384 -2.87588,3.19674 -4.70508,4.31054 -3.3825,1.8893 -8.11361,-0.60747 -8.41211,-4.48437 -0.093,-4.2519 -0.015,-8.51123 -0.041,-12.76563 0.0451,-2.5387 -0.37904,-5.38541 1.47656,-7.44531 5.7649,-5.8696 11.62987,-11.64531 17.4336,-17.47851 z m -382.55861,13.45898 286.76954,0 c 2.25704,0 4.07422,1.81719 4.07422,4.07422 l 0,90.29297 c 0,2.25703 -1.81718,4.07422 -4.07422,4.07422 l -286.76954,0 c -2.25704,0 -4.07422,-1.81719 -4.07422,-4.07422 l 0,-90.29297 c 0,-2.25703 1.81718,-4.07422 4.07422,-4.07422 z m -44.36523,12.39062 c 2.1356,-0.0213 4.29956,1.11816 5.22266,3.09376 0.8544,1.8261 0.8007,4.08834 -0.2168,5.83984 -1.0898,1.8804 -3.35246,2.85659 -5.47656,2.67969 -1.9898,-0.1194 -3.9411,-1.28982 -4.7793,-3.13282 -0.7987,-1.7468 -0.7661,-3.87563 0.125,-5.58203 0.9655,-1.8559 3.071,-2.92143 5.125,-2.89844 z m 426.92384,15.11329 c 0.94668,-0.003 1.89132,0.28741 2.67382,0.82031 5.7024,5.4355 11.17341,11.12801 16.78321,16.66601 2.1446,1.5453 3.06417,4.83565 1.35547,7.03125 -5.4563,5.6202 -11.06559,11.09485 -16.58399,16.65625 -1.5453,2.1446 -4.83565,3.06407 -7.03125,1.35547 -5.6203,-5.4563 -11.09485,-11.06558 -16.65625,-16.58398 -2.0685,-1.5048 -3.02071,-4.61207 -1.50391,-6.82617 4.6375,-4.9297 9.5561,-9.6078 14.3086,-14.4336 2.0341,-1.745 3.65226,-4.68554 6.6543,-4.68554 z m -27.0625,2.78906 c 1.06821,-0.005 2.13142,0.0417 3.17187,0.29492 3.7277,1.0572 5.30669,6.16799 2.77539,9.12109 -2.5294,2.6603 -5.18312,5.20562 -7.76172,7.82032 -0.4589,0.6307 -1.47697,1.05354 -1.41797,1.90234 1.7588,1.9024 3.66362,3.68296 5.47852,5.53906 1.4386,1.5655 3.1991,2.87548 4.3125,4.70508 1.889,3.383 -0.60843,8.11536 -4.48633,8.41406 -4.2518,0.093 -8.51122,0.015 -12.76562,0.041 -2.5396,-0.0446 -5.38707,0.37818 -7.44727,-1.47852 -5.869,-5.7643 -11.64396,-11.62874 -17.47656,-17.43164 5.2891,-5.2897 10.57808,-10.57954 15.86719,-15.86914 1.4798,-1.6536 3.40164,-3.13801 5.74414,-3.04101 l 10.80273,0 c 1.06205,0.0449 2.1349,-0.0123 3.20313,-0.0176 z m 66.76171,0.006 c 1.96876,-0.0131 3.95636,0.0967 5.50196,1.48828 5.8697,5.7648 11.64521,11.63009 17.47851,17.43359 -4.8858,4.8852 -9.77045,9.77115 -14.65625,14.65625 -1.8277,1.7639 -3.5433,4.07696 -6.3125,4.22266 -3.8135,0.073 -7.63021,0.0113 -11.44531,0.0312 -2.124,-0.0898 -4.2942,0.22916 -6.375,-0.27734 -3.7262,-1.0581 -5.30664,-6.16995 -2.77734,-9.12305 2.5298,-2.6606 5.18457,-5.20356 7.76367,-7.81836 0.4589,-0.6306 1.47892,-1.05364 1.41992,-1.90234 -1.8939,-2.0372 -3.93467,-3.95452 -5.88477,-5.94532 -1.4766,-1.6454 -3.47069,-2.94435 -4.24609,-5.09765 -1.3247,-3.5726 1.7007,-7.82505 5.5293,-7.65625 l 12.05859,0 c 0.63483,0.0112 1.28906,-0.007 1.94531,-0.0117 z m -466.62305,1.93359 c 2.1358,-0.0213 4.30026,1.11943 5.22266,3.0957 0.8538,1.8262 0.8014,4.0867 -0.2168,5.8379 -1.0903,1.8798 -3.35246,2.85668 -5.47656,2.67968 -1.9896,-0.1194 -3.9405,-1.28856 -4.7793,-3.13086 -0.7993,-1.7467 -0.7655,-3.87748 0.125,-5.58398 0.9649,-1.8566 3.0709,-2.92144 5.125,-2.89844 z m 0,19.84375 c 2.1359,-0.0219 4.30036,1.11685 5.22266,3.09375 0.8541,1.8266 0.801,4.08805 -0.2168,5.83985 -1.0776,1.8605 -3.30686,2.83659 -5.41016,2.68359 -1.9881,-0.0984 -3.9497,-1.23936 -4.8125,-3.06836 -0.8338,-1.7589 -0.8094,-3.92374 0.0918,-5.65234 0.9645,-1.857 3.0711,-2.92049 5.125,-2.89649 z m 413.52149,17.00586 c 0.43806,-0.0241 0.88219,0.006 1.32617,0.0977 0.934,0.1607 1.82336,0.56449 2.56446,1.15429 2.6608,2.5303 5.20696,5.18448 7.82226,7.76368 0.6307,0.4589 1.05169,1.47892 1.90039,1.41992 1.9026,-1.7592 3.68482,-3.66507 5.54102,-5.48047 1.5653,-1.4386 2.87528,-3.1995 4.70508,-4.3125 3.3835,-1.887 8.11506,0.60853 8.41406,4.48633 0.092,4.2511 0.0131,8.50997 0.0391,12.76367 -0.0446,2.5396 0.37819,5.38706 -1.47851,7.44727 -5.7643,5.86959 -11.62865,11.64531 -17.43164,17.47851 l -14.65626,-14.6582 c -1.76389,-1.8272 -4.0766,-3.54115 -4.2207,-6.31055 -0.074,-5.2218 -0.0122,-10.44837 -0.0332,-15.67187 -0.28919,-3.1647 2.44138,-6.00917 5.50781,-6.17774 z m -413.52149,2.83594 c 2.1356,-0.0213 4.29956,1.11815 5.22266,3.09375 0.8544,1.8262 0.8007,4.08834 -0.2168,5.83984 -1.0897,1.8804 -3.35246,2.85659 -5.47656,2.67969 -1.9898,-0.1194 -3.9412,-1.28981 -4.7793,-3.13281 -0.7987,-1.7468 -0.7661,-3.87563 0.125,-5.58203 0.9655,-1.856 3.071,-2.92144 5.125,-2.89844 z m 377.48829,0.875 15.14844,0 10.71289,10.71289 0,15.15039 -10.71289,10.71289 -15.14844,0 -10.71289,-10.71289 0,-15.15039 z"
       style="color:#000000;font-style:normal;font-variant:normal;font-weight:normal;font-stretch:normal;font-size:medium;line-height:normal;font-family:sans-serif;text-indent:0;text-align:start;text-decoration:none;text-decoration-line:none;text-decoration-style:solid;text-decoration-color:#000000;letter-spacing:normal;word-spacing:normal;text-transform:none;direction:ltr;block-progression:tb;writing-mode:lr-tb;baseline-shift:baseline;text-anchor:start;white-space:normal;clip-rule:nonzero;display:inline;overflow:visible;visibility:visible;opacity:1;isolation:auto;mix-blend-mode:normal;color-interpolation:sRGB;color-interpolation-filters:linearRGB;solid-color:#000000;solid-opacity:1;fill:#ff8b8b;fill-opacity:1;fill-rule:nonzero;stroke:none;stroke-width:1;stroke-linecap:butt;stroke-linejoin:miter;stroke-miterlimit:4;stroke-dasharray:none;stroke-dashoffset:0;stroke-opacity:1;color-rendering:auto;image-rendering:auto;shape-rendering:auto;text-rendering:auto;enable-background:accumulate"
       inkscape:connector-curvature="0"
       sodipodi:nodetypes="ccccccccccccccccccccsssssssssccccccccccccccccccccccccccccccccccccccccccccccccccccccccccccccccccccccccccccccccccccccccccccccc" />
  </g>
</svg>
