<?xml version="1.0" encoding="UTF-8" standalone="no"?>
<!-- Created with Inkscape (http://www.inkscape.org/) -->

<svg
   xmlns:dc="http://purl.org/dc/elements/1.1/"
   xmlns:cc="http://creativecommons.org/ns#"
   xmlns:rdf="http://www.w3.org/1999/02/22-rdf-syntax-ns#"
   xmlns:svg="http://www.w3.org/2000/svg"
   xmlns="http://www.w3.org/2000/svg"
   xmlns:sodipodi="http://sodipodi.sourceforge.net/DTD/sodipodi-0.dtd"
   xmlns:inkscape="http://www.inkscape.org/namespaces/inkscape"
   width="210mm"
   height="297mm"
   viewBox="0 0 744.09448819 1052.3622047"
   id="svg66429"
   version="1.1"
   inkscape:version="0.91 r13725"
   sodipodi:docname="drawing.svg">
  <defs
     id="defs66431" />
  <sodipodi:namedview
     id="base"
     pagecolor="#ffffff"
     bordercolor="#666666"
     borderopacity="1.0"
     inkscape:pageopacity="0.0"
     inkscape:pageshadow="2"
     inkscape:zoom="1.88"
     inkscape:cx="306.59246"
     inkscape:cy="703.08611"
     inkscape:document-units="px"
     inkscape:current-layer="layer1"
     showgrid="false"
     inkscape:window-width="1680"
     inkscape:window-height="988"
     inkscape:window-x="0"
     inkscape:window-y="0"
     inkscape:window-maximized="1" />
  <metadata
     id="metadata66434">
    <rdf:RDF>
      <cc:Work
         rdf:about="">
        <dc:format>image/svg+xml</dc:format>
        <dc:type
           rdf:resource="http://purl.org/dc/dcmitype/StillImage" />
        <dc:title></dc:title>
      </cc:Work>
    </rdf:RDF>
  </metadata>
  <g
     inkscape:label="Layer 1"
     inkscape:groupmode="layer"
     id="layer1">
    <g
       transform="translate(-2565.0864,-1357.9318)"
       id="g67501"
       style="fill:#000000;fill-opacity:1;stroke:#000000;stroke-opacity:1">
      <path
         style="color:#000000;font-style:normal;font-variant:normal;font-weight:normal;font-stretch:normal;font-size:medium;line-height:normal;font-family:sans-serif;text-indent:0;text-align:start;text-decoration:none;text-decoration-line:none;text-decoration-style:solid;text-decoration-color:#000000;letter-spacing:normal;word-spacing:normal;text-transform:none;direction:ltr;block-progression:tb;writing-mode:lr-tb;baseline-shift:baseline;text-anchor:start;white-space:normal;clip-rule:nonzero;display:inline;overflow:visible;visibility:visible;opacity:1;isolation:auto;mix-blend-mode:normal;color-interpolation:sRGB;color-interpolation-filters:linearRGB;solid-color:#000000;solid-opacity:1;fill:#ff8789;fill-opacity:1;fill-rule:nonzero;stroke:none;stroke-width:1;stroke-linecap:butt;stroke-linejoin:miter;stroke-miterlimit:4;stroke-dasharray:none;stroke-dashoffset:0;stroke-opacity:1;color-rendering:auto;image-rendering:auto;shape-rendering:auto;text-rendering:auto;enable-background:accumulate"
         d="m 2614.328,1396.2172 c 0.01,44.0337 -0.01,88.0673 0,132.101 168.0503,10e-5 336.1007,-10e-5 504.151,0 -3e-4,-44.0337 -4e-4,-88.0673 0,-132.101 -168.0503,0 -336.1007,0 -504.151,0 z"
         id="path67252-5"
         inkscape:connector-curvature="0" />
    </g>
    <g
       transform="translate(-2565.0864,-1357.9318)"
       id="g67563">
      <path
         inkscape:connector-curvature="0"
         d="m 2636.0884,1515.4169 a 8.858268,8.858268 0 1 0 -17.7165,0 8.858268,8.858268 0 1 0 17.7165,0 z"
         style="fill:none;stroke:#000000"
         id="path67258-4" />
      <path
         inkscape:connector-curvature="0"
         d="m 2631.6593,1515.4169 a 4.42915,4.42915 0 1 0 -8.8583,0 4.42915,4.42915 0 1 0 8.8583,0 z"
         style="fill:none;stroke:#000000"
         id="path67260-7" />
    </g>
    <g
       transform="translate(-2565.0864,-1357.9318)"
       id="g67559">
      <path
         inkscape:connector-curvature="0"
         d="m 2631.6593,1409.1177 a 4.42915,4.42915 0 1 0 -8.8583,0 4.42915,4.42915 0 1 0 8.8583,0 z"
         style="fill:none;stroke:#000000"
         id="path67262-6" />
      <path
         inkscape:connector-curvature="0"
         d="m 2636.0884,1409.1177 a 8.858268,8.858268 0 1 0 -17.7165,0 8.858268,8.858268 0 1 0 17.7165,0 z"
         style="fill:none;stroke:#000000"
         id="path67264-5" />
    </g>
    <g
       transform="translate(-2565.0864,-1357.9318)"
       id="g67567">
      <path
         inkscape:connector-curvature="0"
         d="m 3011.679,1409.1177 a 8.8583,8.8583 0 1 0 -17.7166,0 8.8583,8.8583 0 0 0 17.7166,0 z"
         style="fill:none;stroke:#000000"
         id="path67266-6" />
      <path
         inkscape:connector-curvature="0"
         d="m 3007.2498,1409.1177 a 4.429134,4.429134 0 1 0 -8.8582,0 4.429134,4.429134 0 1 0 8.8582,0 z"
         style="fill:none;stroke:#000000"
         id="path67268-9" />
    </g>
    <g
       transform="translate(-2565.0864,-1357.9318)"
       id="g67575">
      <path
         inkscape:connector-curvature="0"
         d="m 3114.4349,1515.4169 a 8.8583,8.8583 0 1 0 -17.7166,0 8.8583,8.8583 0 0 0 17.7166,0 z"
         style="fill:none;stroke:#000000"
         id="path67272-3" />
      <path
         inkscape:connector-curvature="0"
         d="m 3110.0057,1515.4169 a 4.429134,4.429134 0 1 0 -8.8582,0 4.429134,4.429134 0 1 0 8.8582,0 z"
         style="fill:none;stroke:#000000"
         id="path67274-7" />
    </g>
    <g
       transform="translate(-2565.0864,-1357.9318)"
       id="g67571">
      <path
         inkscape:connector-curvature="0"
         d="m 3114.4349,1409.1177 a 8.8583,8.8583 0 1 0 -17.7166,0 8.8583,8.8583 0 0 0 17.7166,0 z"
         style="fill:none;stroke:#000000"
         id="path67276-4" />
      <path
         inkscape:connector-curvature="0"
         d="m 3110.0057,1409.1177 a 4.429134,4.429134 0 1 0 -8.8582,0 4.429134,4.429134 0 1 0 8.8582,0 z"
         style="fill:none;stroke:#000000"
         id="path67278-5" />
    </g>
    <path
       id="path67282-2"
       style="fill:none;stroke:#000000"
       d="m 67.857419,93.17407 a 5.669291,5.669291 0 1 0 -11.3385,0 5.669291,5.669291 0 1 0 11.3385,0 z"
       inkscape:connector-curvature="0" />
    <path
       id="path67284-5"
       style="fill:none;stroke:#000000"
       d="m 67.857419,73.33147 a 5.669291,5.669291 0 1 0 -11.3385,0 5.669291,5.669291 0 1 0 11.3385,0 z"
       inkscape:connector-curvature="0" />
    <path
       id="path67286-4"
       style="fill:none;stroke:#000000"
       d="m 67.857419,132.85907 a 5.669291,5.669291 0 1 0 -11.3385,0 5.669291,5.669291 0 1 0 11.3385,0 z"
       inkscape:connector-curvature="0" />
    <path
       id="path67288-7"
       style="fill:none;stroke:#000000"
       d="m 67.857419,113.01657 a 5.669291,5.669291 0 1 0 -11.3385,0 5.669291,5.669291 0 1 0 11.3385,0 z"
       inkscape:connector-curvature="0" />
    <path
       style="color:#000000;font-style:normal;font-variant:normal;font-weight:normal;font-stretch:normal;font-size:medium;line-height:normal;font-family:sans-serif;text-indent:0;text-align:start;text-decoration:none;text-decoration-line:none;text-decoration-style:solid;text-decoration-color:#000000;letter-spacing:normal;word-spacing:normal;text-transform:none;direction:ltr;block-progression:tb;writing-mode:lr-tb;baseline-shift:baseline;text-anchor:start;white-space:normal;clip-rule:nonzero;display:inline;overflow:visible;visibility:visible;opacity:1;isolation:auto;mix-blend-mode:normal;color-interpolation:sRGB;color-interpolation-filters:linearRGB;solid-color:#000000;solid-opacity:1;fill:#000000;fill-opacity:1;fill-rule:nonzero;stroke:none;stroke-width:1;stroke-linecap:butt;stroke-linejoin:miter;stroke-miterlimit:4;stroke-dasharray:none;stroke-dashoffset:0;stroke-opacity:1;color-rendering:auto;image-rendering:auto;shape-rendering:auto;text-rendering:auto;enable-background:accumulate"
       d="m 62.189119,67.50567 c -2.054,-0.023 -4.1591,1.0419 -5.1246,2.8978 -0.8911,1.7064 -0.9239,3.8368 -0.1252,5.5836 0.8382,1.843 2.7884,3.0129 4.7782,3.1323 2.1241,0.1769 4.388,-0.7994 5.4778,-2.6798 1.0175,-1.7515 1.0699,-4.0133 0.2155,-5.8394 -0.9231,-1.9756 -3.0861,-3.1158 -5.2217,-3.0945 z"
       id="path67290-4"
       inkscape:connector-curvature="0" />
    <path
       style="color:#000000;font-style:normal;font-variant:normal;font-weight:normal;font-stretch:normal;font-size:medium;line-height:normal;font-family:sans-serif;text-indent:0;text-align:start;text-decoration:none;text-decoration-line:none;text-decoration-style:solid;text-decoration-color:#000000;letter-spacing:normal;word-spacing:normal;text-transform:none;direction:ltr;block-progression:tb;writing-mode:lr-tb;baseline-shift:baseline;text-anchor:start;white-space:normal;clip-rule:nonzero;display:inline;overflow:visible;visibility:visible;opacity:1;isolation:auto;mix-blend-mode:normal;color-interpolation:sRGB;color-interpolation-filters:linearRGB;solid-color:#000000;solid-opacity:1;fill:#000000;fill-opacity:1;fill-rule:nonzero;stroke:none;stroke-width:1;stroke-linecap:butt;stroke-linejoin:miter;stroke-miterlimit:4;stroke-dasharray:none;stroke-dashoffset:0;stroke-opacity:1;color-rendering:auto;image-rendering:auto;shape-rendering:auto;text-rendering:auto;enable-background:accumulate"
       d="m 62.189119,87.34747 c -2.0541,-0.023 -4.1597,1.042 -5.1246,2.8986 -0.8905,1.7065 -0.9245,3.837 -0.1252,5.5837 0.8388,1.8423 2.7886,3.012 4.7782,3.1314 2.1241,0.177 4.3875,-0.7994 5.4778,-2.6792 1.0182,-1.7512 1.0693,-4.013 0.2155,-5.8392 -0.9224,-1.9763 -3.0859,-3.1166 -5.2217,-3.0953 z"
       id="path67292-4"
       inkscape:connector-curvature="0" />
    <path
       style="color:#000000;font-style:normal;font-variant:normal;font-weight:normal;font-stretch:normal;font-size:medium;line-height:normal;font-family:sans-serif;text-indent:0;text-align:start;text-decoration:none;text-decoration-line:none;text-decoration-style:solid;text-decoration-color:#000000;letter-spacing:normal;word-spacing:normal;text-transform:none;direction:ltr;block-progression:tb;writing-mode:lr-tb;baseline-shift:baseline;text-anchor:start;white-space:normal;clip-rule:nonzero;display:inline;overflow:visible;visibility:visible;opacity:1;isolation:auto;mix-blend-mode:normal;color-interpolation:sRGB;color-interpolation-filters:linearRGB;solid-color:#000000;solid-opacity:1;fill:#000000;fill-opacity:1;fill-rule:nonzero;stroke:none;stroke-width:1;stroke-linecap:butt;stroke-linejoin:miter;stroke-miterlimit:4;stroke-dasharray:none;stroke-dashoffset:0;stroke-opacity:1;color-rendering:auto;image-rendering:auto;shape-rendering:auto;text-rendering:auto;enable-background:accumulate"
       d="m 62.189119,107.19117 c -2.0539,-0.024 -4.1601,1.0397 -5.1246,2.8967 -0.9012,1.7286 -0.9268,3.8926 -0.093,5.6515 0.8628,1.829 2.8253,2.9698 4.8134,3.0682 2.1033,0.153 4.3329,-0.8219 5.4105,-2.6824 1.0178,-1.7518 1.0696,-4.014 0.2155,-5.8406 -0.9223,-1.9769 -3.0858,-3.1153 -5.2217,-3.0934 z"
       id="path67294-3"
       inkscape:connector-curvature="0" />
    <path
       style="color:#000000;font-style:normal;font-variant:normal;font-weight:normal;font-stretch:normal;font-size:medium;line-height:normal;font-family:sans-serif;text-indent:0;text-align:start;text-decoration:none;text-decoration-line:none;text-decoration-style:solid;text-decoration-color:#000000;letter-spacing:normal;word-spacing:normal;text-transform:none;direction:ltr;block-progression:tb;writing-mode:lr-tb;baseline-shift:baseline;text-anchor:start;white-space:normal;clip-rule:nonzero;display:inline;overflow:visible;visibility:visible;opacity:1;isolation:auto;mix-blend-mode:normal;color-interpolation:sRGB;color-interpolation-filters:linearRGB;solid-color:#000000;solid-opacity:1;fill:#000000;fill-opacity:1;fill-rule:nonzero;stroke:none;stroke-width:1;stroke-linecap:butt;stroke-linejoin:miter;stroke-miterlimit:4;stroke-dasharray:none;stroke-dashoffset:0;stroke-opacity:1;color-rendering:auto;image-rendering:auto;shape-rendering:auto;text-rendering:auto;enable-background:accumulate"
       d="m 62.189119,127.03297 c -2.054,-0.023 -4.1591,1.0419 -5.1246,2.8979 -0.8911,1.7064 -0.9239,3.8368 -0.1252,5.5836 0.8381,1.843 2.7884,3.0128 4.7782,3.1322 2.1241,0.1769 4.3881,-0.7993 5.4778,-2.6797 1.0175,-1.7515 1.0699,-4.0133 0.2155,-5.8395 -0.9231,-1.9756 -3.0861,-3.1158 -5.2217,-3.0945 z"
       id="path67296-0"
       inkscape:connector-curvature="0" />
    <path
       style="color:#000000;font-style:normal;font-variant:normal;font-weight:normal;font-stretch:normal;font-size:medium;line-height:normal;font-family:sans-serif;text-indent:0;text-align:start;text-decoration:none;text-decoration-line:none;text-decoration-style:solid;text-decoration-color:#000000;letter-spacing:normal;word-spacing:normal;text-transform:none;direction:ltr;block-progression:tb;writing-mode:lr-tb;baseline-shift:baseline;text-anchor:start;white-space:normal;clip-rule:nonzero;display:inline;overflow:visible;visibility:visible;opacity:1;isolation:auto;mix-blend-mode:normal;color-interpolation:sRGB;color-interpolation-filters:linearRGB;solid-color:#000000;solid-opacity:1;fill:#000000;fill-opacity:1;fill-rule:nonzero;stroke:none;stroke-width:1;stroke-linecap:butt;stroke-linejoin:miter;stroke-miterlimit:4;stroke-dasharray:none;stroke-dashoffset:0;stroke-opacity:1;color-rendering:auto;image-rendering:auto;shape-rendering:auto;text-rendering:auto;enable-background:accumulate"
       d="m 489.11292,82.61897 c -3.002,0 -4.621,2.9402 -6.6551,4.6852 -4.7525,4.8258 -9.67,9.5043 -14.3075,14.434 -1.5168,2.2141 -0.5645,5.3207 1.504,6.8255 5.5614,5.5184 11.0358,11.129 16.6561,16.5853 2.1956,1.7086 5.4851,0.7881 7.0304,-1.3565 5.5184,-5.5614 11.129,-11.0359 16.5853,-16.6561 1.7087,-2.1956 0.7881,-5.4852 -1.3565,-7.0305 -5.6098,-5.538 -11.08,-11.2313 -16.7824,-16.6668 -0.7825,-0.5329 -1.7276,-0.8228 -2.6743,-0.8201 z"
       id="path67298-7"
       inkscape:connector-curvature="0" />
    <path
       style="color:#000000;font-style:normal;font-variant:normal;font-weight:normal;font-stretch:normal;font-size:medium;line-height:normal;font-family:sans-serif;text-indent:0;text-align:start;text-decoration:none;text-decoration-line:none;text-decoration-style:solid;text-decoration-color:#000000;letter-spacing:normal;word-spacing:normal;text-transform:none;direction:ltr;block-progression:tb;writing-mode:lr-tb;baseline-shift:baseline;text-anchor:start;white-space:normal;clip-rule:nonzero;display:inline;overflow:visible;visibility:visible;opacity:1;isolation:auto;mix-blend-mode:normal;color-interpolation:sRGB;color-interpolation-filters:linearRGB;solid-color:#000000;solid-opacity:1;fill:#000000;fill-opacity:1;fill-rule:nonzero;stroke:none;stroke-width:1;stroke-linecap:butt;stroke-linejoin:miter;stroke-miterlimit:4;stroke-dasharray:none;stroke-dashoffset:0;stroke-opacity:1;color-rendering:auto;image-rendering:auto;shape-rendering:auto;text-rendering:auto;enable-background:accumulate"
       d="m 448.04462,85.42557 c -2.3425,-0.097 -4.2643,1.3876 -5.7441,3.0412 -5.2891,5.2896 -10.5782,10.5793 -15.8673,15.869 5.8326,5.8029 11.6076,11.6671 17.4766,17.4314 2.0602,1.8567 4.9081,1.4341 7.4477,1.4787 4.2544,-0.026 8.5126,0.052 12.7644,-0.041 3.8779,-0.2987 6.3752,-5.0313 4.4862,-8.4143 -1.1134,-1.8296 -2.8737,-3.1386 -4.3123,-4.7041 -1.8149,-1.8561 -3.7201,-3.6379 -5.4789,-5.5403 -0.059,-0.8488 0.9597,-1.2712 1.4186,-1.9019 2.5786,-2.6147 5.2329,-5.1592 7.7623,-7.8195 2.5313,-2.9531 0.9514,-8.0654 -2.7763,-9.1226 -2.0809,-0.5065 -4.2513,-0.1873 -6.3754,-0.2771 -3.6005,0 -7.201,0 -10.8015,0 z"
       id="path67300-8"
       inkscape:connector-curvature="0" />
    <path
       style="color:#000000;font-style:normal;font-variant:normal;font-weight:normal;font-stretch:normal;font-size:medium;line-height:normal;font-family:sans-serif;text-indent:0;text-align:start;text-decoration:none;text-decoration-line:none;text-decoration-style:solid;text-decoration-color:#000000;letter-spacing:normal;word-spacing:normal;text-transform:none;direction:ltr;block-progression:tb;writing-mode:lr-tb;baseline-shift:baseline;text-anchor:start;white-space:normal;clip-rule:nonzero;display:inline;overflow:visible;visibility:visible;opacity:1;isolation:auto;mix-blend-mode:normal;color-interpolation:sRGB;color-interpolation-filters:linearRGB;solid-color:#000000;solid-opacity:1;fill:#000000;fill-opacity:1;fill-rule:nonzero;stroke:none;stroke-width:1;stroke-linecap:butt;stroke-linejoin:miter;stroke-miterlimit:4;stroke-dasharray:none;stroke-dashoffset:0;stroke-opacity:1;color-rendering:auto;image-rendering:auto;shape-rendering:auto;text-rendering:auto;enable-background:accumulate"
       d="m 514.80822,85.42557 c -3.8286,-0.1688 -6.8533,4.0836 -5.5286,7.6562 0.7754,2.1533 2.7683,3.4532 4.2449,5.0986 1.9501,1.9908 3.9905,3.9073 5.8844,5.9445 0.059,0.8487 -0.9598,1.271 -1.4187,1.9016 -2.5791,2.6148 -5.2342,5.1592 -7.764,7.8198 -2.5293,2.9531 -0.9497,8.0644 2.7765,9.1225 2.0808,0.5065 4.2511,0.1873 6.3751,0.2771 3.8151,-0.02 7.6328,0.041 11.4463,-0.032 2.7692,-0.1457 4.4835,-2.4587 6.3112,-4.2226 4.8858,-4.8851 9.7715,-9.7703 14.6573,-14.6555 -5.8333,-5.8035 -11.6088,-11.6685 -17.4785,-17.4333 -2.0608,-1.8554 -4.9084,-1.4319 -7.4477,-1.4769 -4.0194,0 -8.0388,0 -12.0582,0 z"
       id="path67302-6"
       inkscape:connector-curvature="0" />
    <path
       style="color:#000000;font-style:normal;font-variant:normal;font-weight:normal;font-stretch:normal;font-size:medium;line-height:normal;font-family:sans-serif;text-indent:0;text-align:start;text-decoration:none;text-decoration-line:none;text-decoration-style:solid;text-decoration-color:#000000;letter-spacing:normal;word-spacing:normal;text-transform:none;direction:ltr;block-progression:tb;writing-mode:lr-tb;baseline-shift:baseline;text-anchor:start;white-space:normal;clip-rule:nonzero;display:inline;overflow:visible;visibility:visible;opacity:1;isolation:auto;mix-blend-mode:normal;color-interpolation:sRGB;color-interpolation-filters:linearRGB;solid-color:#000000;solid-opacity:1;fill:#000000;fill-opacity:1;fill-rule:nonzero;stroke:none;stroke-width:1;stroke-linecap:butt;stroke-linejoin:miter;stroke-miterlimit:4;stroke-dasharray:none;stroke-dashoffset:0;stroke-opacity:1;color-rendering:auto;image-rendering:auto;shape-rendering:auto;text-rendering:auto;enable-background:accumulate"
       d="m 439.67742,127.90797 c -3.571,3.571 -7.1419,7.1419 -10.7129,10.7129 0,5.0501 0,10.1003 0,15.1504 3.571,3.571 7.1419,7.1419 10.7129,10.7129 5.0495,0 10.0989,0 15.1484,0 3.571,-3.571 7.1419,-7.1419 10.7129,-10.7129 0,-5.0501 0,-10.1003 0,-15.1504 -3.571,-3.571 -7.1419,-7.1419 -10.7129,-10.7129 -5.0495,0 -10.0989,0 -15.1484,0 z"
       id="path67304-8"
       inkscape:connector-curvature="0" />
    <path
       style="color:#000000;font-style:normal;font-variant:normal;font-weight:normal;font-stretch:normal;font-size:medium;line-height:normal;font-family:sans-serif;text-indent:0;text-align:start;text-decoration:none;text-decoration-line:none;text-decoration-style:solid;text-decoration-color:#000000;letter-spacing:normal;word-spacing:normal;text-transform:none;direction:ltr;block-progression:tb;writing-mode:lr-tb;baseline-shift:baseline;text-anchor:start;white-space:normal;clip-rule:nonzero;display:inline;overflow:visible;visibility:visible;opacity:1;isolation:auto;mix-blend-mode:normal;color-interpolation:sRGB;color-interpolation-filters:linearRGB;solid-color:#000000;solid-opacity:1;fill:#000000;fill-opacity:1;fill-rule:nonzero;stroke:none;stroke-width:1;stroke-linecap:butt;stroke-linejoin:miter;stroke-miterlimit:4;stroke-dasharray:none;stroke-dashoffset:0;stroke-opacity:1;color-rendering:auto;image-rendering:auto;shape-rendering:auto;text-rendering:auto;enable-background:accumulate"
       d="m 477.03672,124.29477 c -3.5519,-0.7367 -7.1644,2.4641 -6.8339,6.0809 0.021,5.2235 -0.042,10.4495 0.032,15.6713 0.1441,2.7694 2.4569,4.4839 4.2208,6.3111 4.8858,4.8858 9.7716,9.7716 14.6574,14.6574 5.803,-5.8332 11.6672,-11.6089 17.4315,-17.4785 1.8567,-2.0602 1.4341,-4.9082 1.4787,-7.4478 -0.026,-4.2537 0.052,-8.5113 -0.04,-12.7624 -0.299,-3.8778 -5.0309,-6.3748 -8.4144,-4.4878 -1.8298,1.113 -3.1384,2.8738 -4.7037,4.3124 -1.8562,1.8154 -3.6381,3.7212 -5.5407,5.4804 -0.8487,0.059 -1.2711,-0.9597 -1.9018,-1.4186 -2.6153,-2.5792 -5.1606,-5.2339 -7.8214,-7.7642 -0.7411,-0.5898 -1.6299,-0.9935 -2.5639,-1.1542 z"
       id="path67306-8"
       inkscape:connector-curvature="0" />
    <path
       style="color:#000000;font-style:normal;font-variant:normal;font-weight:normal;font-stretch:normal;font-size:medium;line-height:normal;font-family:sans-serif;text-indent:0;text-align:start;text-decoration:none;text-decoration-line:none;text-decoration-style:solid;text-decoration-color:#000000;letter-spacing:normal;word-spacing:normal;text-transform:none;direction:ltr;block-progression:tb;writing-mode:lr-tb;baseline-shift:baseline;text-anchor:start;white-space:normal;clip-rule:nonzero;display:inline;overflow:visible;visibility:visible;opacity:1;isolation:auto;mix-blend-mode:normal;color-interpolation:sRGB;color-interpolation-filters:linearRGB;solid-color:#000000;solid-opacity:1;fill:#000000;fill-opacity:1;fill-rule:nonzero;stroke:none;stroke-width:1;stroke-linecap:butt;stroke-linejoin:miter;stroke-miterlimit:4;stroke-dasharray:none;stroke-dashoffset:0;stroke-opacity:1;color-rendering:auto;image-rendering:auto;shape-rendering:auto;text-rendering:auto;enable-background:accumulate"
       d="m 489.11292,41.65607 c -5.8036,5.8332 -11.6684,11.6088 -17.4333,17.4784 -1.8556,2.0599 -1.4317,4.9071 -1.4768,7.4458 0.026,4.2544 -0.052,8.5126 0.041,12.7645 0.2985,3.8769 5.0301,6.3754 8.4126,4.4861 1.8292,-1.1138 3.1387,-2.8735 4.7042,-4.3119 1.8566,-1.8151 3.6391,-3.7202 5.5419,-5.4792 0.8488,-0.059 1.2712,0.9597 1.9019,1.4186 2.6147,2.5785 5.1592,5.2328 7.8195,7.7622 2.9531,2.5314 8.0654,0.9515 9.1226,-2.7763 0.5065,-2.0809 0.1873,-4.2513 0.2771,-6.3754 -0.02,-3.8151 0.041,-7.6327 -0.032,-11.4461 -0.1462,-2.7685 -2.4594,-4.4819 -4.2226,-6.3094 -4.8852,-4.8858 -9.7704,-9.7715 -14.6556,-14.6573 z"
       id="path67308-4"
       inkscape:connector-curvature="0" />
    <rect
       style="opacity:1;fill:#7ab7b7;fill-opacity:1;stroke:none;stroke-width:1;stroke-linecap:round;stroke-linejoin:round;stroke-miterlimit:4;stroke-dasharray:none;stroke-opacity:1"
       id="rect67536"
       width="294.91699"
       height="98.441002"
       x="102.48061"
       y="55.115417"
       ry="4.0740743" />
    <path
       style="color:#000000;font-style:normal;font-variant:normal;font-weight:normal;font-stretch:normal;font-size:medium;line-height:normal;font-family:sans-serif;text-indent:0;text-align:start;text-decoration:none;text-decoration-line:none;text-decoration-style:solid;text-decoration-color:#000000;letter-spacing:normal;word-spacing:normal;text-transform:none;direction:ltr;block-progression:tb;writing-mode:lr-tb;baseline-shift:baseline;text-anchor:start;white-space:normal;clip-rule:nonzero;display:inline;overflow:visible;visibility:visible;opacity:1;isolation:auto;mix-blend-mode:normal;color-interpolation:sRGB;color-interpolation-filters:linearRGB;solid-color:#000000;solid-opacity:1;fill:#ff8b8b;fill-opacity:1;fill-rule:nonzero;stroke:none;stroke-width:1;stroke-linecap:butt;stroke-linejoin:miter;stroke-miterlimit:4;stroke-dasharray:none;stroke-dashoffset:0;stroke-opacity:1;color-rendering:auto;image-rendering:auto;shape-rendering:auto;text-rendering:auto;enable-background:accumulate"
       d="M 47.925781 217.23242 C 47.935781 261.26612 47.915781 305.30028 47.925781 349.33398 C 215.97608 349.33408 384.02587 349.33388 552.07617 349.33398 C 552.07587 305.30028 552.07577 261.26612 552.07617 217.23242 L 47.925781 217.23242 z M 487.79688 220.60352 C 492.68207 225.48932 497.56805 230.37397 502.45312 235.25977 C 504.21634 237.08727 506.52958 238.80181 506.67578 241.57031 C 506.74878 245.38371 506.68703 249.20052 506.70703 253.01562 C 506.61723 255.13973 506.93814 257.31168 506.43164 259.39258 C 505.37444 263.12038 500.26169 264.69937 497.30859 262.16797 C 494.64829 259.63857 492.10298 256.98475 489.48828 254.40625 C 488.85758 253.94735 488.43474 252.92733 487.58594 252.98633 C 485.68314 254.74533 483.90152 256.6517 482.04492 258.4668 C 480.47942 259.9052 479.16904 261.66354 477.33984 262.77734 C 473.95734 264.66664 469.22623 262.16987 468.92773 258.29297 C 468.83473 254.04107 468.91272 249.78174 468.88672 245.52734 C 468.93182 242.98864 468.50768 240.14193 470.36328 238.08203 C 476.12818 232.21243 481.99315 226.43672 487.79688 220.60352 z M 105.23828 234.0625 L 392.00781 234.0625 C 394.26485 234.0625 396.08203 235.87969 396.08203 238.13672 L 396.08203 328.42969 C 396.08203 330.68672 394.26485 332.50391 392.00781 332.50391 L 105.23828 332.50391 C 102.98124 332.50391 101.16406 330.68672 101.16406 328.42969 L 101.16406 238.13672 C 101.16406 235.87969 102.98124 234.0625 105.23828 234.0625 z M 60.873047 246.45312 C 63.008647 246.43182 65.172603 247.57128 66.095703 249.54688 C 66.950103 251.37298 66.896406 253.63522 65.878906 255.38672 C 64.789106 257.26712 62.526444 258.24331 60.402344 258.06641 C 58.412544 257.94701 56.461247 256.77659 55.623047 254.93359 C 54.824347 253.18679 54.856947 251.05796 55.748047 249.35156 C 56.713547 247.49566 58.819047 246.43013 60.873047 246.45312 z M 487.79688 261.56641 C 488.74356 261.56371 489.6882 261.85382 490.4707 262.38672 C 496.1731 267.82222 501.64411 273.51473 507.25391 279.05273 C 509.39851 280.59803 510.31808 283.88838 508.60938 286.08398 C 503.15308 291.70418 497.54379 297.17883 492.02539 302.74023 C 490.48009 304.88483 487.18974 305.8043 484.99414 304.0957 C 479.37384 298.6394 473.89929 293.03012 468.33789 287.51172 C 466.26939 286.00692 465.31718 282.89965 466.83398 280.68555 C 471.47148 275.75585 476.39008 271.07775 481.14258 266.25195 C 483.17668 264.50695 484.79484 261.56641 487.79688 261.56641 z M 460.73438 264.35547 C 461.80259 264.35021 462.8658 264.39714 463.90625 264.65039 C 467.63395 265.70759 469.21294 270.81838 466.68164 273.77148 C 464.15224 276.43178 461.49852 278.9771 458.91992 281.5918 C 458.46102 282.2225 457.44295 282.64534 457.50195 283.49414 C 459.26075 285.39654 461.16557 287.1771 462.98047 289.0332 C 464.41907 290.5987 466.17957 291.90868 467.29297 293.73828 C 469.18197 297.12128 466.68454 301.85364 462.80664 302.15234 C 458.55484 302.24534 454.29542 302.16736 450.04102 302.19336 C 447.50142 302.14876 444.65395 302.57154 442.59375 300.71484 C 436.72475 294.95054 430.94979 289.0861 425.11719 283.2832 C 430.40629 277.9935 435.69527 272.70366 440.98438 267.41406 C 442.46418 265.76046 444.38602 264.27605 446.72852 264.37305 L 457.53125 264.37305 C 458.5933 264.41795 459.66615 264.36073 460.73438 264.35547 z M 527.49609 264.36133 C 529.46485 264.34818 531.45245 264.45806 532.99805 265.84961 C 538.86775 271.61441 544.64326 277.4797 550.47656 283.2832 C 545.59076 288.1684 540.70611 293.05435 535.82031 297.93945 C 533.99261 299.70335 532.27701 302.01641 529.50781 302.16211 C 525.69431 302.23511 521.8776 302.17336 518.0625 302.19336 C 515.9385 302.10356 513.7683 302.42252 511.6875 301.91602 C 507.9613 300.85792 506.38086 295.74607 508.91016 292.79297 C 511.43996 290.13237 514.09473 287.58941 516.67383 284.97461 C 517.13273 284.34401 518.15275 283.92097 518.09375 283.07227 C 516.19985 281.03507 514.15908 279.11775 512.20898 277.12695 C 510.73238 275.48155 508.73829 274.1826 507.96289 272.0293 C 506.63819 268.4567 509.66359 264.20425 513.49219 264.37305 L 525.55078 264.37305 C 526.18561 264.3843 526.83984 264.36571 527.49609 264.36133 z M 60.873047 266.29492 C 63.008847 266.27362 65.173303 267.41435 66.095703 269.39062 C 66.949503 271.21682 66.897106 273.47732 65.878906 275.22852 C 64.788606 277.10832 62.526444 278.0852 60.402344 277.9082 C 58.412744 277.7888 56.461847 276.61964 55.623047 274.77734 C 54.823747 273.03064 54.857547 270.89986 55.748047 269.19336 C 56.712947 267.33676 58.818947 266.27192 60.873047 266.29492 z M 60.873047 286.13867 C 63.008947 286.11677 65.173403 287.25552 66.095703 289.23242 C 66.949803 291.05902 66.896706 293.32047 65.878906 295.07227 C 64.801306 296.93277 62.57205 297.90886 60.46875 297.75586 C 58.48065 297.65746 56.51905 296.5165 55.65625 294.6875 C 54.82245 292.9286 54.846847 290.76376 55.748047 289.03516 C 56.712547 287.17816 58.819147 286.11467 60.873047 286.13867 z M 474.39453 303.14453 C 474.83259 303.12045 475.27672 303.1501 475.7207 303.24219 C 476.6547 303.40289 477.54406 303.80668 478.28516 304.39648 C 480.94596 306.92678 483.49212 309.58096 486.10742 312.16016 C 486.73812 312.61906 487.15911 313.63908 488.00781 313.58008 C 489.91041 311.82088 491.69263 309.91501 493.54883 308.09961 C 495.11413 306.66101 496.42411 304.90011 498.25391 303.78711 C 501.63741 301.90011 506.36897 304.39564 506.66797 308.27344 C 506.75997 312.52454 506.68103 316.78341 506.70703 321.03711 C 506.66243 323.57671 507.08522 326.42417 505.22852 328.48438 C 499.46422 334.35397 493.59987 340.12969 487.79688 345.96289 L 473.14062 331.30469 C 471.37673 329.47749 469.06402 327.76354 468.91992 324.99414 C 468.84592 319.77234 468.90772 314.54577 468.88672 309.32227 C 468.59753 306.15757 471.3281 303.3131 474.39453 303.14453 z M 60.873047 305.98047 C 63.008647 305.95917 65.172603 307.09862 66.095703 309.07422 C 66.950103 310.90042 66.896406 313.16256 65.878906 314.91406 C 64.789206 316.79446 62.526444 317.77065 60.402344 317.59375 C 58.412544 317.47435 56.461147 316.30394 55.623047 314.46094 C 54.824347 312.71414 54.856947 310.58531 55.748047 308.87891 C 56.713547 307.02291 58.819047 305.95747 60.873047 305.98047 z M 438.36133 306.85547 L 453.50977 306.85547 L 464.22266 317.56836 L 464.22266 332.71875 L 453.50977 343.43164 L 438.36133 343.43164 L 427.64844 332.71875 L 427.64844 317.56836 L 438.36133 306.85547 z "
       id="path67708" />
    <g
       id="g67710"
       transform="translate(-2566.4022,-1178.9844)">
      <path
         id="path67712"
         style="fill:none;stroke:#000000"
         d="m 2636.0884,1515.4169 a 8.858268,8.858268 0 1 0 -17.7165,0 8.858268,8.858268 0 1 0 17.7165,0 z"
         inkscape:connector-curvature="0" />
      <path
         id="path67714"
         style="fill:none;stroke:#000000"
         d="m 2631.6593,1515.4169 a 4.42915,4.42915 0 1 0 -8.8583,0 4.42915,4.42915 0 1 0 8.8583,0 z"
         inkscape:connector-curvature="0" />
    </g>
    <g
       id="g67716"
       transform="translate(-2566.4022,-1178.9844)">
      <path
         id="path67718"
         style="fill:none;stroke:#000000"
         d="m 2631.6593,1409.1177 a 4.42915,4.42915 0 1 0 -8.8583,0 4.42915,4.42915 0 1 0 8.8583,0 z"
         inkscape:connector-curvature="0" />
      <path
         id="path67720"
         style="fill:none;stroke:#000000"
         d="m 2636.0884,1409.1177 a 8.858268,8.858268 0 1 0 -17.7165,0 8.858268,8.858268 0 1 0 17.7165,0 z"
         inkscape:connector-curvature="0" />
    </g>
    <g
       id="g67722"
       transform="translate(-2566.4022,-1178.9844)">
      <path
         id="path67724"
         style="fill:none;stroke:#000000"
         d="m 3011.679,1409.1177 a 8.8583,8.8583 0 1 0 -17.7166,0 8.8583,8.8583 0 0 0 17.7166,0 z"
         inkscape:connector-curvature="0" />
      <path
         id="path67726"
         style="fill:none;stroke:#000000"
         d="m 3007.2498,1409.1177 a 4.429134,4.429134 0 1 0 -8.8582,0 4.429134,4.429134 0 1 0 8.8582,0 z"
         inkscape:connector-curvature="0" />
    </g>
    <g
       id="g67728"
       transform="translate(-2566.4022,-1178.9844)">
      <path
         id="path67730"
         style="fill:none;stroke:#000000"
         d="m 3114.4349,1515.4169 a 8.8583,8.8583 0 1 0 -17.7166,0 8.8583,8.8583 0 0 0 17.7166,0 z"
         inkscape:connector-curvature="0" />
      <path
         id="path67732"
         style="fill:none;stroke:#000000"
         d="m 3110.0057,1515.4169 a 4.429134,4.429134 0 1 0 -8.8582,0 4.429134,4.429134 0 1 0 8.8582,0 z"
         inkscape:connector-curvature="0" />
    </g>
    <g
       id="g67734"
       transform="translate(-2566.4022,-1178.9844)">
      <path
         id="path67736"
         style="fill:none;stroke:#000000"
         d="m 3114.4349,1409.1177 a 8.8583,8.8583 0 1 0 -17.7166,0 8.8583,8.8583 0 0 0 17.7166,0 z"
         inkscape:connector-curvature="0" />
      <path
         id="path67738"
         style="fill:none;stroke:#000000"
         d="m 3110.0057,1409.1177 a 4.429134,4.429134 0 1 0 -8.8582,0 4.429134,4.429134 0 1 0 8.8582,0 z"
         inkscape:connector-curvature="0" />
    </g>
    <path
       id="path67787"
       d="m 45.798121,372.55157 c 0.01,44.0337 -0.01,88.06786 0,132.10156 168.050299,1e-4 336.100089,-10e-5 504.150389,0 -3e-4,-44.0337 -4e-4,-88.06786 0,-132.10156 l -504.150389,0 z m 439.871099,3.3711 c 4.88519,4.8858 9.77117,9.77045 14.65624,14.65625 1.76322,1.8275 4.07646,3.54204 4.22266,6.31054 0.073,3.8134 0.0113,7.63021 0.0312,11.44531 -0.0898,2.12411 0.23111,4.29606 -0.27539,6.37696 -1.0572,3.7278 -6.16995,5.30679 -9.12305,2.77539 -2.6603,-2.5294 -5.20561,-5.18322 -7.82031,-7.76172 -0.6307,-0.4589 -1.05354,-1.47892 -1.90234,-1.41992 -1.9028,1.759 -3.68442,3.66537 -5.54102,5.48047 -1.5655,1.4384 -2.87588,3.19674 -4.70508,4.31054 -3.3825,1.8893 -8.11361,-0.60747 -8.41211,-4.48437 -0.093,-4.2519 -0.015,-8.51123 -0.041,-12.76563 0.0451,-2.5387 -0.37904,-5.38541 1.47656,-7.44531 5.7649,-5.8696 11.62987,-11.64531 17.4336,-17.47851 z m -382.5586,13.45898 286.76953,0 c 2.25704,0 4.07422,1.81719 4.07422,4.07422 l 0,90.29297 c 0,2.25703 -1.81718,4.07422 -4.07422,4.07422 l -286.76953,0 c -2.25704,0 -4.07422,-1.81719 -4.07422,-4.07422 l 0,-90.29297 c 0,-2.25703 1.81718,-4.07422 4.07422,-4.07422 z m -44.365233,12.39062 c 2.1356,-0.0213 4.299556,1.11816 5.222656,3.09376 0.8544,1.8261 0.800703,4.08834 -0.216797,5.83984 -1.0898,1.8804 -3.352462,2.85659 -5.476562,2.67969 -1.9898,-0.1194 -3.941097,-1.28982 -4.779297,-3.13282 -0.7987,-1.7468 -0.7661,-3.87563 0.125,-5.58203 0.9655,-1.8559 3.071,-2.92143 5.125,-2.89844 z m 426.923833,15.11329 c 0.94668,-0.003 1.89132,0.28741 2.67382,0.82031 5.7024,5.4355 11.17341,11.12801 16.78321,16.66601 2.1446,1.5453 3.06417,4.83565 1.35547,7.03125 -5.4563,5.6202 -11.06559,11.09485 -16.58399,16.65625 -1.5453,2.1446 -4.83565,3.06407 -7.03125,1.35547 -5.6203,-5.4563 -11.09485,-11.06558 -16.65625,-16.58398 -2.0685,-1.5048 -3.02071,-4.61207 -1.50391,-6.82617 4.6375,-4.9297 9.5561,-9.6078 14.3086,-14.4336 2.0341,-1.745 3.65226,-4.68554 6.6543,-4.68554 z m -27.0625,2.78906 c 1.06821,-0.005 2.13142,0.0417 3.17187,0.29492 3.7277,1.0572 5.30669,6.16799 2.77539,9.12109 -2.5294,2.6603 -5.18312,5.20562 -7.76172,7.82032 -0.4589,0.6307 -1.47697,1.05354 -1.41797,1.90234 1.7588,1.9024 3.66362,3.68296 5.47852,5.53906 1.4386,1.5655 3.1991,2.87548 4.3125,4.70508 1.889,3.383 -0.60843,8.11536 -4.48633,8.41406 -4.2518,0.093 -8.51122,0.015 -12.76562,0.041 -2.5396,-0.0446 -5.38707,0.37818 -7.44727,-1.47852 -5.869,-5.7643 -11.64396,-11.62874 -17.47656,-17.43164 5.2891,-5.2897 10.57808,-10.57954 15.86719,-15.86914 1.4798,-1.6536 3.40164,-3.13801 5.74414,-3.04101 l 10.80273,0 c 1.06205,0.0449 2.1349,-0.0123 3.20313,-0.0176 z m 66.76171,0.006 c 1.96876,-0.0131 3.95636,0.0967 5.50196,1.48828 5.8697,5.7648 11.64521,11.63009 17.47851,17.43359 -4.8858,4.8852 -9.77045,9.77115 -14.65625,14.65625 -1.8277,1.7639 -3.5433,4.07696 -6.3125,4.22266 -3.8135,0.073 -7.63021,0.0113 -11.44531,0.0312 -2.124,-0.0898 -4.2942,0.22916 -6.375,-0.27734 -3.7262,-1.0581 -5.30664,-6.16995 -2.77734,-9.12305 2.5298,-2.6606 5.18457,-5.20356 7.76367,-7.81836 0.4589,-0.6306 1.47892,-1.05364 1.41992,-1.90234 -1.8939,-2.0372 -3.93467,-3.95452 -5.88477,-5.94532 -1.4766,-1.6454 -3.47069,-2.94435 -4.24609,-5.09765 -1.3247,-3.5726 1.7007,-7.82505 5.5293,-7.65625 l 12.05859,0 c 0.63483,0.0112 1.28906,-0.007 1.94531,-0.0117 z m -466.623043,1.93359 c 2.1358,-0.0213 4.300256,1.11943 5.222656,3.0957 0.8538,1.8262 0.801403,4.0867 -0.216797,5.8379 -1.0903,1.8798 -3.352462,2.85668 -5.476562,2.67968 -1.9896,-0.1194 -3.940497,-1.28856 -4.779297,-3.13086 -0.7993,-1.7467 -0.7655,-3.87748 0.125,-5.58398 0.9649,-1.8566 3.0709,-2.92144 5.125,-2.89844 z m 0,19.84375 c 2.1359,-0.0219 4.300356,1.11685 5.222656,3.09375 0.8541,1.8266 0.801003,4.08805 -0.216797,5.83985 -1.0776,1.8605 -3.306856,2.83659 -5.410156,2.68359 -1.9881,-0.0984 -3.9497,-1.23936 -4.8125,-3.06836 -0.8338,-1.7589 -0.809403,-3.92374 0.0918,-5.65234 0.9645,-1.857 3.0711,-2.92049 5.125,-2.89649 z m 413.521483,17.00586 c 0.43806,-0.0241 0.88219,0.006 1.32617,0.0977 0.934,0.1607 1.82336,0.56449 2.56446,1.15429 2.6608,2.5303 5.20696,5.18448 7.82226,7.76368 0.6307,0.4589 1.05169,1.47892 1.90039,1.41992 1.9026,-1.7592 3.68482,-3.66507 5.54102,-5.48047 1.5653,-1.4386 2.87528,-3.1995 4.70508,-4.3125 3.3835,-1.887 8.11506,0.60853 8.41406,4.48633 0.092,4.2511 0.0131,8.50997 0.0391,12.76367 -0.0446,2.5396 0.37819,5.38706 -1.47851,7.44727 -5.7643,5.86959 -11.62865,11.64531 -17.43164,17.47851 L 471.013,486.62402 c -1.76389,-1.8272 -4.0766,-3.54115 -4.2207,-6.31055 -0.074,-5.2218 -0.0122,-10.44837 -0.0332,-15.67187 -0.28919,-3.1647 2.44138,-6.00917 5.50781,-6.17774 z m -413.521483,2.83594 c 2.1356,-0.0213 4.299556,1.11815 5.222656,3.09375 0.8544,1.8262 0.800703,4.08834 -0.216797,5.83984 -1.0897,1.8804 -3.352462,2.85659 -5.476562,2.67969 -1.9898,-0.1194 -3.941197,-1.28981 -4.779297,-3.13281 -0.7987,-1.7468 -0.7661,-3.87563 0.125,-5.58203 0.9655,-1.856 3.071,-2.92144 5.125,-2.89844 z m 377.488283,0.875 15.14844,0 10.71289,10.71289 0,15.15039 -10.71289,10.71289 -15.14844,0 -10.71289,-10.71289 0,-15.15039 10.71289,-10.71289 z"
       style="color:#000000;font-style:normal;font-variant:normal;font-weight:normal;font-stretch:normal;font-size:medium;line-height:normal;font-family:sans-serif;text-indent:0;text-align:start;text-decoration:none;text-decoration-line:none;text-decoration-style:solid;text-decoration-color:#000000;letter-spacing:normal;word-spacing:normal;text-transform:none;direction:ltr;block-progression:tb;writing-mode:lr-tb;baseline-shift:baseline;text-anchor:start;white-space:normal;clip-rule:nonzero;display:inline;overflow:visible;visibility:visible;opacity:1;isolation:auto;mix-blend-mode:normal;color-interpolation:sRGB;color-interpolation-filters:linearRGB;solid-color:#000000;solid-opacity:1;fill:#ff8b8b;fill-opacity:1;fill-rule:nonzero;stroke:none;stroke-width:1;stroke-linecap:butt;stroke-linejoin:miter;stroke-miterlimit:4;stroke-dasharray:none;stroke-dashoffset:0;stroke-opacity:1;color-rendering:auto;image-rendering:auto;shape-rendering:auto;text-rendering:auto;enable-background:accumulate"
       inkscape:connector-curvature="0" />
  </g>
</svg>
